<svg width="50" height="51" viewBox="0 0 50 51" fill="none" xmlns="http://www.w3.org/2000/svg">
<path d="M25 0.5C11.2 0.5 0 11.7 0 25.5C0 39.3 11.2 50.5 25 50.5C38.8 50.5 50 39.3 50 25.5C50 11.7 38.8 0.5 25 0.5ZM36.6 17.5C36.225 21.45 34.6 31.05 33.775 35.475C33.425 37.35 32.725 37.975 32.075 38.05C30.625 38.175 29.525 37.1 28.125 36.175C25.925 34.725 24.675 33.825 22.55 32.425C20.075 30.8 21.675 29.9 23.1 28.45C23.475 28.075 29.875 22.25 30 21.725C30.0174 21.6455 30.0151 21.5629 29.9933 21.4845C29.9715 21.4061 29.9309 21.3342 29.875 21.275C29.725 21.15 29.525 21.2 29.35 21.225C29.125 21.275 25.625 23.6 18.8 28.2C17.8 28.875 16.9 29.225 16.1 29.2C15.2 29.175 13.5 28.7 12.225 28.275C10.65 27.775 9.425 27.5 9.525 26.625C9.575 26.175 10.2 25.725 11.375 25.25C18.675 22.075 23.525 19.975 25.95 18.975C32.9 16.075 34.325 15.575 35.275 15.575C35.475 15.575 35.95 15.625 36.25 15.875C36.5 16.075 36.575 16.35 36.6 16.55C36.575 16.7 36.625 17.15 36.6 17.5Z" fill="#E4E4E4"/>
</svg>
